<?xml version="1.0" encoding="UTF-8"?>
<!-- Generator: visioncortex VTracer 0.6.4 -->
<svg version="1.1" xmlns="http://www.w3.org/2000/svg" width="1024" height="1024">
<path d="M0 0 C337.92 0 675.84 0 1024 0 C1024 337.92 1024 675.84 1024 1024 C686.08 1024 348.16 1024 0 1024 C0 686.08 0 348.16 0 0 Z " fill="#F5FBFE" transform="translate(0,0)"/>
<path d="M0 0 C4.58 3.37 8.01 7.15 11.19 11.86 C12.31 13.61 12.31 13.61 14.38 14.46 C16.14 14.55 17.9 14.58 19.67 14.58 C20.79 14.59 21.92 14.59 23.08 14.59 C24.33 14.59 25.58 14.59 26.87 14.59 C28.85 14.59 28.85 14.59 30.87 14.59 C33.77 14.6 36.68 14.6 39.58 14.6 C44.31 14.6 49.04 14.6 53.76 14.61 C60.63 14.62 67.49 14.62 74.35 14.63 C85.2 14.63 96.05 14.65 106.9 14.67 C110.61 14.67 114.32 14.68 118.03 14.69 C118.96 14.69 119.88 14.69 120.84 14.69 C131.4 14.71 141.96 14.72 152.52 14.74 C153.97 14.74 153.97 14.74 155.45 14.74 C171.09 14.77 186.74 14.78 202.38 14.78 C218.43 14.79 234.49 14.82 250.54 14.85 C260.45 14.87 270.36 14.88 280.26 14.88 C287.05 14.87 293.84 14.89 300.63 14.91 C304.55 14.92 308.47 14.93 312.39 14.92 C315.98 14.91 319.56 14.91 323.15 14.94 C325.06 14.94 326.97 14.93 328.88 14.92 C336.31 14.99 342.22 15.57 347.9 20.87 C351.98 25.44 353.63 29.14 353.38 35.21 C352.06 44.81 344.77 51.5 338.13 58.04 C337.36 58.81 336.58 59.58 335.78 60.38 C334.15 62.01 332.52 63.63 330.88 65.24 C328.38 67.71 325.9 70.18 323.41 72.66 C321.82 74.24 320.23 75.83 318.63 77.41 C317.9 78.14 317.16 78.88 316.4 79.63 C312.53 83.45 308.59 87.03 304.38 90.46 C303.37 91.57 302.38 92.72 301.45 93.89 C297.91 98.05 294.01 101.7 290.01 105.39 C282.28 112.53 274.72 119.71 267.89 127.73 C266.44 129.39 265.03 130.99 263.38 132.46 C262.72 132.46 262.06 132.46 261.38 132.46 C261.13 133.05 260.87 133.64 260.61 134.26 C259.26 136.67 257.93 137.92 255.8 139.67 C251.19 143.58 246.94 147.76 242.67 152.04 C241.84 152.87 241.01 153.7 240.16 154.55 C237.44 157.26 234.72 159.98 232.01 162.7 C230.11 164.59 228.22 166.49 226.32 168.38 C222.37 172.33 218.42 176.29 214.46 180.25 C209.89 184.82 205.31 189.4 200.73 193.97 C196.8 197.91 192.86 201.84 188.93 205.78 C186.58 208.13 184.23 210.48 181.88 212.82 C179.27 215.43 176.66 218.04 174.06 220.65 C172.89 221.82 172.89 221.82 171.69 223.02 C170.98 223.72 170.28 224.43 169.56 225.16 C168.94 225.77 168.32 226.39 167.69 227.03 C166.27 228.26 166.27 228.26 166.38 229.46 C181.16 229.57 195.94 229.66 210.72 229.72 C217.58 229.74 224.44 229.78 231.3 229.83 C237.92 229.89 244.54 229.92 251.16 229.93 C253.69 229.94 256.21 229.96 258.74 229.99 C262.28 230.02 265.81 230.03 269.35 230.02 C270.4 230.04 271.45 230.06 272.53 230.08 C278.43 230.06 278.43 230.06 283.44 227.11 C284.8 225.26 286.13 223.39 287.45 221.52 C292.07 215.99 298.94 212.95 305.96 211.94 C316.6 211.62 323.88 214.33 331.66 221.52 C337.26 227.81 338.75 234.98 338.66 243.19 C337.95 251.6 334.62 258.75 328.38 264.46 C327.39 265.12 326.4 265.78 325.38 266.46 C324.88 268.74 324.88 268.74 324.9 271.44 C324.87 272.48 324.84 273.51 324.81 274.58 C324.8 275.71 324.79 276.84 324.77 278 C324.76 279.16 324.74 280.31 324.72 281.51 C324.69 283.96 324.67 286.41 324.66 288.87 C324.63 292.61 324.54 296.35 324.45 300.1 C324.43 302.48 324.41 304.87 324.4 307.25 C324.36 308.37 324.32 309.48 324.29 310.63 C324.29 316.65 324.29 316.65 327.32 321.63 C329.65 323.49 329.65 323.49 332.08 324.98 C339.41 329.69 343.61 337.27 345.96 345.48 C347.83 354.25 345.4 361.65 341.38 369.46 C335.92 377.78 328.03 383.75 318.38 386.46 C307.45 388.37 296.83 386.17 287.51 380.14 C284 377.45 281.84 374.1 279.38 370.46 C276.77 369.15 274.87 369.33 271.95 369.33 C270.78 369.32 269.62 369.32 268.42 369.32 C267.14 369.32 265.85 369.32 264.52 369.32 C263.15 369.32 261.78 369.31 260.4 369.31 C256.62 369.3 252.83 369.3 249.05 369.3 C244.97 369.3 240.89 369.29 236.81 369.28 C229.74 369.27 222.66 369.26 215.59 369.26 C204.41 369.25 193.23 369.23 182.05 369.2 C178.23 369.2 174.4 369.19 170.58 369.18 C169.62 369.18 168.67 369.18 167.68 369.18 C156.8 369.16 145.91 369.14 135.03 369.12 C134.03 369.12 133.04 369.12 132.01 369.11 C115.89 369.09 99.77 369.07 83.65 369.05 C67.1 369.04 50.55 369.01 34.01 368.97 C23.8 368.94 13.59 368.93 3.38 368.93 C-3.62 368.93 -10.62 368.91 -17.62 368.89 C-21.65 368.88 -25.69 368.87 -29.73 368.88 C-33.43 368.88 -37.13 368.88 -40.83 368.86 C-42.79 368.85 -44.76 368.86 -46.72 368.87 C-54.19 368.81 -61.66 368.6 -67.74 363.77 C-68.17 363.19 -68.61 362.62 -69.05 362.02 C-69.51 361.44 -69.96 360.87 -70.43 360.27 C-72.64 356.9 -73.92 354.29 -73.99 350.21 C-74.02 349.5 -74.05 348.79 -74.08 348.07 C-72.67 340.1 -67.58 334.85 -62.04 329.4 C-61.27 328.63 -60.5 327.85 -59.71 327.06 C-57.15 324.49 -54.57 321.94 -52 319.38 C-50.15 317.54 -48.31 315.7 -46.47 313.85 C-42.51 309.89 -38.54 305.93 -34.56 301.98 C-28.82 296.27 -23.08 290.54 -17.35 284.81 C-8.05 275.52 1.26 266.24 10.58 256.96 C19.63 247.95 28.67 238.93 37.71 229.91 C38.27 229.36 38.82 228.8 39.4 228.23 C42.19 225.43 44.99 222.64 47.79 219.85 C70.97 196.71 94.17 173.58 117.38 150.46 C115.8 148.88 114.21 149.31 112.02 149.3 C111.08 149.29 110.14 149.28 109.17 149.27 C107.6 149.26 107.6 149.26 106.01 149.25 C104.37 149.23 104.37 149.23 102.7 149.22 C99.07 149.19 95.44 149.17 91.81 149.15 C90.58 149.14 89.34 149.14 88.06 149.13 C82.86 149.1 77.66 149.08 72.46 149.06 C65.01 149.04 57.57 149 50.12 148.93 C44.25 148.88 38.38 148.86 32.5 148.85 C30.01 148.84 27.51 148.82 25.02 148.79 C21.52 148.75 18.03 148.75 14.53 148.76 C13.5 148.74 12.47 148.72 11.41 148.7 C6.39 148.75 3.25 149.05 -0.64 152.39 C-1.63 153.41 -2.63 154.43 -3.62 155.46 C-9.35 159.15 -15.5 160.04 -22.2 159.09 C-29.45 157.28 -34.83 153.63 -39 147.39 C-41.96 141.61 -42.56 135.85 -41.62 129.46 C-40.32 125.49 -38.76 122.43 -35.57 119.71 C-33.09 116.85 -33.13 115.42 -33.16 111.68 C-33.16 110.52 -33.16 109.36 -33.16 108.16 C-33.18 106.91 -33.21 105.66 -33.23 104.38 C-33.24 102.46 -33.24 102.46 -33.24 100.49 C-33.26 97.09 -33.3 93.7 -33.34 90.3 C-33.38 86.82 -33.4 83.35 -33.42 79.88 C-33.46 73.07 -33.53 66.26 -33.62 59.46 C-34.38 59.16 -35.15 58.86 -35.93 58.56 C-43.9 55.29 -48.94 49.52 -52.43 41.77 C-55.7 32.64 -55.58 24.15 -51.94 15.13 C-47.25 5.64 -40.05 -0.66 -30.18 -4.42 C-19.89 -7.38 -9.19 -5.42 0 0 Z " fill="#2573F5" transform="translate(362.6171875,155.54296875)"/>
<path d="M0 0 C1.46 -0.01 1.46 -0.01 2.95 -0.01 C4.56 -0 4.56 -0 6.2 0.01 C7.91 0 7.91 0 9.65 0 C13.48 -0 17.32 0.01 21.15 0.02 C23.89 0.02 26.63 0.02 29.37 0.02 C35.28 0.02 41.18 0.02 47.09 0.03 C55.63 0.05 64.17 0.06 72.72 0.06 C86.57 0.06 100.43 0.08 114.29 0.1 C127.75 0.11 141.22 0.13 154.68 0.14 C155.51 0.14 156.34 0.14 157.19 0.14 C161.36 0.14 165.52 0.14 169.68 0.15 C204.22 0.17 238.75 0.2 273.29 0.25 C273.82 1.8 274.34 3.37 274.85 4.93 C275.14 5.8 275.43 6.67 275.73 7.57 C276.35 10.55 276.18 12.35 275.29 15.25 C273.2 17.81 273.2 17.81 270.42 20.55 C269.92 21.06 269.41 21.56 268.89 22.08 C267.22 23.75 265.53 25.4 263.84 27.05 C262.67 28.21 261.5 29.37 260.33 30.53 C257.25 33.59 254.16 36.64 251.06 39.69 C246.12 44.55 241.2 49.44 236.28 54.32 C234.57 56.01 232.85 57.7 231.14 59.39 C226.14 64.31 221.23 69.24 216.73 74.63 C214.7 76.91 212.38 78.76 210.02 80.7 C208.19 82.34 206.64 84.07 205.05 85.95 C201.42 90.14 197.59 94.09 193.67 98 C192.96 98.7 192.26 99.41 191.54 100.13 C190.06 101.61 188.58 103.09 187.1 104.56 C184.86 106.8 182.62 109.05 180.38 111.29 C178.94 112.74 177.49 114.18 176.04 115.63 C175.38 116.29 174.73 116.95 174.05 117.63 C170.19 121.47 166.21 125.11 162.09 128.67 C159.82 130.66 157.66 132.74 155.53 134.88 C154.72 135.68 153.91 136.49 153.08 137.32 C151.85 138.55 151.85 138.55 150.6 139.81 C149.77 140.63 148.95 141.46 148.09 142.31 C144.69 145.71 141.34 149.08 138.33 152.84 C137.66 153.63 136.98 154.43 136.29 155.25 C135.63 155.25 134.97 155.25 134.29 155.25 C133.92 156.12 133.92 156.12 133.54 157.02 C132.11 159.57 130.53 161 128.29 162.87 C126.21 164.62 124.21 166.33 122.29 168.25 C119.74 168.61 117.23 168.89 114.66 169.12 C108.52 169.78 103.46 170.63 98.29 174.25 C97.24 174.97 96.19 175.69 95.1 176.43 C89.25 182.28 85.37 190.12 84.91 198.43 C85.19 207.41 88.81 214.99 95.05 221.36 C103.27 228.27 113.09 228.11 123.29 227.25 C131.15 225.88 136.22 220.32 141.66 214.87 C144.33 212.21 146.14 212.12 149.79 212.1 C150.73 212.09 151.68 212.08 152.65 212.08 C153.7 212.07 154.74 212.07 155.81 212.07 C156.9 212.06 158 212.06 159.13 212.05 C162.76 212.03 166.39 212.02 170.03 212.01 C171.27 212 172.5 212 173.78 212 C179.66 211.98 185.54 211.96 191.42 211.95 C198.2 211.94 204.98 211.92 211.77 211.88 C217.64 211.84 223.52 211.83 229.4 211.83 C231.9 211.82 234.4 211.81 236.89 211.79 C240.39 211.77 243.88 211.77 247.38 211.78 C248.93 211.76 248.93 211.76 250.52 211.74 C257.54 211.79 257.54 211.79 261.33 214.1 C263.27 216.22 265.07 218.43 266.83 220.7 C268.51 222.48 270.29 223.51 272.38 224.78 C274.83 226.59 276.08 227.64 277.08 230.54 C277.41 233.33 277.5 236.02 277.49 238.83 C277.51 239.85 277.53 240.86 277.54 241.91 C277.57 244.05 277.57 246.2 277.55 248.34 C277.54 251.61 277.63 254.86 277.73 258.13 C277.91 272.85 277.91 272.85 275.12 276.97 C272.78 279.21 270.26 280.52 267.32 281.84 C263.05 283.82 260.73 286.87 257.81 290.46 C256.29 292.25 256.29 292.25 254.29 293.25 C252.72 293.34 251.15 293.37 249.58 293.37 C248.08 293.38 248.08 293.38 246.55 293.38 C245.44 293.38 244.34 293.38 243.2 293.37 C241.44 293.38 241.44 293.38 239.66 293.38 C236.4 293.38 233.15 293.38 229.89 293.38 C226.39 293.37 222.88 293.38 219.38 293.38 C212.5 293.39 205.63 293.38 198.76 293.38 C193.18 293.38 187.6 293.38 182.01 293.38 C180.82 293.38 180.82 293.38 179.61 293.38 C178 293.38 176.39 293.38 174.78 293.38 C159.66 293.38 144.53 293.38 129.41 293.38 C116.42 293.37 103.44 293.37 90.45 293.38 C75.38 293.38 60.31 293.38 45.25 293.38 C43.64 293.38 42.04 293.38 40.43 293.38 C39.64 293.38 38.85 293.38 38.04 293.38 C32.46 293.38 26.88 293.38 21.3 293.38 C14.51 293.39 7.71 293.38 0.92 293.38 C-2.55 293.38 -6.02 293.38 -9.49 293.38 C-13.24 293.38 -16.99 293.38 -20.75 293.37 C-21.85 293.38 -22.96 293.38 -24.11 293.38 C-25.1 293.38 -26.1 293.37 -27.13 293.37 C-28.43 293.37 -28.43 293.37 -29.76 293.37 C-31.71 293.25 -31.71 293.25 -32.71 292.25 C-33.74 285.42 -34.53 278.91 -30.5 273.02 C-27.67 270.26 -24.76 267.77 -21.71 265.25 C-20.43 263.86 -19.17 262.45 -17.96 261 C-11.45 253.4 -11.45 253.4 -7.71 250.25 C-7.05 250.25 -6.39 250.25 -5.71 250.25 C-5.44 249.65 -5.18 249.05 -4.9 248.43 C-3.68 246.2 -2.54 244.92 -0.66 243.22 C-0.02 242.64 0.61 242.06 1.26 241.47 C1.97 240.83 2.67 240.2 3.39 239.54 C10.7 232.78 17.78 225.81 24.76 218.72 C25.52 217.94 25.52 217.94 26.3 217.15 C28.44 214.98 30.57 212.81 32.7 210.64 C36.69 206.57 40.68 202.52 44.69 198.48 C45.27 197.88 45.86 197.29 46.47 196.68 C48.88 194.24 51.29 191.81 53.7 189.37 C60.49 182.5 67.27 175.63 74.03 168.73 C79.44 163.2 84.88 157.69 90.33 152.21 C93.21 149.32 96.07 146.42 98.91 143.49 C101.57 140.75 104.26 138.04 106.96 135.35 C107.95 134.36 108.92 133.36 109.89 132.35 C114.83 127.2 118.45 123.8 125.75 123.19 C127.59 123.2 129.44 123.21 131.29 123.25 C141.09 121.22 147.58 117.04 153.66 109.18 C157.76 101.78 158.28 94.56 157.29 86.25 C154.41 77.13 149.76 71.68 141.43 67.26 C133.3 63.46 123.62 62.76 115.16 65.81 C109.48 68.32 104.41 72.18 100.86 77.32 C96.74 80.41 92.45 79.85 87.44 79.86 C86.33 79.88 85.22 79.89 84.09 79.91 C80.42 79.96 76.76 79.98 73.09 79.99 C70.55 80.01 68 80.02 65.45 80.04 C60.1 80.08 54.75 80.09 49.4 80.1 C43.24 80.1 37.08 80.16 30.92 80.25 C24.97 80.33 19.03 80.35 13.08 80.35 C10.56 80.36 8.04 80.38 5.52 80.43 C-16.65 80.76 -16.65 80.76 -23.27 74.88 C-27.35 69.43 -28.09 64.58 -27.83 57.91 C-27.82 56.35 -27.82 56.35 -27.81 54.75 C-27.79 52.57 -27.75 50.39 -27.68 48.2 C-27.59 44.86 -27.56 41.52 -27.55 38.17 C-27.52 36.04 -27.49 33.91 -27.45 31.79 C-27.44 30.29 -27.44 30.29 -27.42 28.76 C-27.18 21.88 -27.18 21.88 -24.78 18.67 C-24.1 18.2 -23.42 17.73 -22.71 17.25 C-22.09 16.79 -21.46 16.33 -20.82 15.86 C-20.18 15.43 -19.55 15 -18.9 14.56 C-14.88 11.63 -12.14 8.23 -9.25 4.2 C-6.48 0.69 -4.28 -0 0 0 Z " fill="#F5FBFE" transform="translate(383.71077251434326,198.75390434265137)"/>
<path d="M0 0 C33.99 0 67.98 0 103 0 C103 18.78 103 18.78 95 28 C93.27 30.37 91.64 32.81 90 35.25 C89.06 36.62 88.13 37.99 87.19 39.36 C86.68 40.09 86.18 40.83 85.66 41.59 C82.46 46.24 79.23 50.87 76 55.5 C69.63 64.64 63.29 73.8 57 83 C56.11 84.3 56.11 84.3 55.21 85.62 C53.24 88.5 51.28 91.37 49.31 94.25 C48.71 95.14 48.1 96.02 47.48 96.94 C42.94 103.6 38.47 110.29 34 117 C56.77 117 79.54 117 103 117 C103 124.92 103 132.84 103 141 C69.01 141 35.02 141 0 141 C0 121.47 0 121.47 4.29 115.89 C4.73 115.25 5.18 114.6 5.64 113.93 C7.08 111.86 8.57 109.84 10.06 107.81 C11.08 106.37 12.1 104.92 13.11 103.46 C15.12 100.59 17.15 97.74 19.21 94.9 C22.85 89.84 26.33 84.67 29.81 79.5 C30.99 77.78 32.17 76.06 33.35 74.34 C37.5 68.28 41.62 62.2 45.75 56.12 C50.61 48.97 55.48 41.82 60.38 34.69 C60.81 34.05 61.24 33.42 61.69 32.77 C63.74 29.79 65.83 26.89 68 24 C34.34 23.5 34.34 23.5 0 23 C0 15.41 0 7.82 0 0 Z " fill="#0C2D67" transform="translate(206,619)"/>
<path d="M0 0 C3.09 2.03 5.54 4.25 8 7 C8.55 7.61 9.11 8.22 9.68 8.84 C16.79 17.46 19.13 27.96 19.11 38.92 C19.11 39.59 19.11 40.25 19.11 40.94 C19.11 43.11 19.11 45.29 19.1 47.46 C19.1 48.98 19.09 50.49 19.09 52.01 C19.09 55.98 19.08 59.96 19.07 63.93 C19.06 68 19.05 72.06 19.05 76.12 C19.04 84.08 19.02 92.04 19 100 C11.74 100 4.48 100 -3 100 C-3.99 96.7 -4.98 93.4 -6 90 C-7.09 91.07 -8.19 92.14 -9.31 93.25 C-18.46 101.28 -30.26 102.6 -42 102 C-52.12 100.99 -60.19 98.92 -67 91 C-73.54 82.77 -73.74 75.36 -73 65 C-70.92 55.6 -64.72 48.49 -57 43 C-53.81 41.77 -53.81 41.77 -50.44 40.81 C-49.32 40.49 -48.21 40.17 -47.06 39.83 C-46.05 39.56 -45.04 39.28 -44 39 C-43.44 38.82 -42.89 38.64 -42.31 38.45 C-38.87 37.78 -35.44 37.88 -31.95 37.9 C-30.8 37.9 -30.8 37.9 -29.62 37.91 C-27.16 37.91 -24.71 37.92 -22.25 37.94 C-20.58 37.94 -18.91 37.95 -17.25 37.95 C-13.16 37.96 -9.08 37.98 -5 38 C-5.11 36.1 -5.24 34.21 -5.38 32.31 C-5.48 30.73 -5.48 30.73 -5.59 29.11 C-5.99 26.06 -6.61 23.75 -8 21 C-15.67 16.74 -27.11 16.84 -35.51 18.5 C-40.03 20.02 -42.91 22.44 -46 26 C-47 27 -47 27 -49.22 27.11 C-50.18 27.11 -51.14 27.1 -52.13 27.1 C-53.68 27.09 -53.68 27.09 -55.26 27.09 C-56.35 27.08 -57.44 27.07 -58.56 27.06 C-60.2 27.06 -60.2 27.06 -61.87 27.05 C-64.58 27.04 -67.29 27.02 -70 27 C-68.38 18.3 -64.08 9.69 -56.81 4.41 C-51.13 0.78 -45.53 -1.41 -39 -3 C-38.39 -3.17 -37.78 -3.34 -37.16 -3.52 C-25.69 -6.07 -10.54 -5.31 0 0 Z " fill="#092963" transform="translate(680,660)"/>
<path d="M0 0 C7.59 0 15.18 0 23 0 C24.19 2.37 24.16 3.89 24.21 6.54 C24.23 7.48 24.25 8.42 24.27 9.39 C24.28 10.41 24.3 11.43 24.32 12.48 C24.34 13.52 24.36 14.56 24.38 15.63 C24.44 18.96 24.5 22.29 24.56 25.62 C24.61 27.88 24.65 30.14 24.69 32.39 C24.8 37.93 24.9 43.46 25 49 C25.59 48.45 26.18 47.9 26.78 47.34 C27.57 46.62 28.36 45.89 29.17 45.15 C29.95 44.44 30.72 43.72 31.52 42.99 C38.6 37.31 48.07 35.23 57 36 C68.86 37.76 76.86 40.62 84.53 49.96 C91.71 59.89 90.19 73.15 90.32 84.85 C90.34 86.47 90.36 88.1 90.38 89.72 C90.43 93.97 90.48 98.21 90.53 102.46 C90.58 106.8 90.64 111.15 90.69 115.49 C90.8 123.99 90.9 132.5 91 141 C82.42 141 73.84 141 65 141 C65.02 139.08 65.03 137.16 65.05 135.18 C65.1 128.8 65.13 122.42 65.16 116.04 C65.17 112.18 65.19 108.31 65.23 104.45 C65.26 100.72 65.28 96.98 65.28 93.25 C65.29 91.83 65.3 90.41 65.32 88.99 C65.4 81.07 65.15 74.32 62 67 C61.67 66.01 61.34 65.02 61 64 C59.22 62.86 59.22 62.86 57 62 C56.26 61.66 55.52 61.32 54.75 60.96 C49.08 58.98 42.13 58.9 36.45 60.9 C34.59 61.86 32.79 62.92 31 64 C30.34 64 29.68 64 29 64 C28.71 64.58 28.42 65.15 28.12 65.75 C27 68 27 68 25.95 69.72 C24.66 72.81 24.72 75.44 24.68 78.79 C24.67 79.46 24.66 80.14 24.65 80.83 C24.62 83.05 24.6 85.27 24.59 87.48 C24.57 89.03 24.55 90.57 24.53 92.11 C24.48 96.16 24.44 100.21 24.4 104.26 C24.36 108.4 24.31 112.53 24.26 116.67 C24.16 124.78 24.08 132.89 24 141 C15.75 141 7.5 141 -1 141 C-1.02 123.5 -1.04 106 -1.05 88.51 C-1.06 80.38 -1.06 72.26 -1.08 64.13 C-1.09 57.05 -1.09 49.97 -1.09 42.88 C-1.1 39.13 -1.1 35.39 -1.11 31.64 C-1.11 27.45 -1.11 23.26 -1.11 19.07 C-1.12 17.83 -1.12 16.59 -1.12 15.31 C-1.12 14.17 -1.12 13.03 -1.12 11.85 C-1.12 10.86 -1.12 9.87 -1.12 8.85 C-1 6 -1 6 0 0 Z " fill="#092A64" transform="translate(333,619)"/>
<path d="M0 0 C8.66 8.39 12.1 19.19 12.44 31.13 C12.48 34.76 12.46 38.39 12.42 42.02 C12.41 43.59 12.41 45.16 12.41 46.74 C12.39 50.84 12.36 54.95 12.33 59.05 C12.3 63.25 12.29 67.46 12.27 71.66 C12.24 79.88 12.19 88.1 12.12 96.31 C3.88 96.31 -4.38 96.31 -12.88 96.31 C-12.88 94.29 -12.89 92.28 -12.9 90.2 C-12.94 83.51 -12.99 76.82 -13.06 70.13 C-13.1 66.08 -13.13 62.02 -13.15 57.97 C-13.16 54.05 -13.2 50.14 -13.24 46.22 C-13.26 44.73 -13.27 43.24 -13.27 41.75 C-13.27 30.44 -13.27 30.44 -17.88 20.31 C-24.49 15.04 -30.64 14.42 -38.88 15.31 C-44.75 17.24 -49.6 19.9 -52.88 25.31 C-54 28.69 -54.03 31.33 -54.08 34.9 C-54.1 35.89 -54.1 35.89 -54.11 36.91 C-54.14 39.1 -54.17 41.29 -54.19 43.48 C-54.21 45 -54.23 46.52 -54.25 48.04 C-54.31 52.04 -54.36 56.04 -54.41 60.04 C-54.46 64.12 -54.51 68.2 -54.57 72.29 C-54.68 80.3 -54.78 88.3 -54.88 96.31 C-63.12 96.31 -71.38 96.31 -79.88 96.31 C-79.88 62.65 -79.88 28.99 -79.88 -5.69 C-72.62 -5.69 -65.36 -5.69 -57.88 -5.69 C-55.92 -1.78 -55.37 1.03 -54.88 5.31 C-53.7 3.73 -53.7 3.73 -52.5 2.12 C-39.82 -12.54 -14.23 -11.81 0 0 Z " fill="#0B2B65" transform="translate(801.875,663.6875)"/>
<path d="M0 0 C8.91 0 17.82 0 27 0 C28.45 2.64 28.45 2.64 29.94 5.32 C30.27 5.94 30.61 6.55 30.96 7.18 C32.69 10.32 34.43 13.46 36.16 16.6 C39.57 22.79 42.99 28.98 46.41 35.16 C47.86 37.79 49.31 40.42 50.77 43.04 C51.46 44.3 52.15 45.55 52.85 46.81 C53.82 48.57 54.8 50.33 55.77 52.09 C56.32 53.09 56.88 54.09 57.44 55.12 C59.03 58.05 60.53 61.01 62 64 C68.92 51.89 75.73 39.73 82.31 27.44 C95.86 2.14 95.86 2.14 98 0 C100 -0.09 102 -0.11 104 -0.1 C105.22 -0.09 106.43 -0.09 107.69 -0.09 C108.96 -0.08 110.24 -0.07 111.56 -0.06 C112.85 -0.06 114.13 -0.05 115.45 -0.05 C118.63 -0.04 121.82 -0.02 125 0 C121.92 6.3 118.68 12.45 115.12 18.5 C114.16 20.16 113.19 21.82 112.22 23.48 C111.7 24.37 111.18 25.25 110.65 26.17 C102.66 39.87 94.75 53.63 86.94 67.44 C86.43 68.34 85.91 69.25 85.39 70.18 C84.44 71.86 83.49 73.56 82.55 75.25 C81.56 77.02 80.51 78.76 79.42 80.48 C75.06 87.63 74.18 93.16 74.41 101.45 C74.43 103.16 74.43 103.16 74.44 104.9 C74.47 108.5 74.55 112.09 74.62 115.69 C74.66 118.14 74.68 120.6 74.71 123.05 C74.77 129.04 74.89 135.02 75 141 C66.75 141 58.5 141 50 141 C50.14 135.8 50.14 135.8 50.27 130.5 C51.34 96.46 51.34 96.46 36.92 66.6 C33.62 62.13 31.09 57.25 28.44 52.38 C27.37 50.48 26.3 48.59 25.23 46.71 C21.36 39.87 17.49 33.02 13.62 26.18 C11.15 21.8 8.68 17.43 6.18 13.07 C5.76 12.32 5.33 11.58 4.9 10.81 C4.11 9.43 3.33 8.06 2.54 6.69 C0 2.23 0 2.23 0 0 Z " fill="#092963" transform="translate(490,619)"/>
<path d="M0 0 C3.3 0.66 6.6 1.32 10 2 C9.67 3.32 9.34 4.64 9 6 C19.56 6 30.12 6 41 6 C41 8.97 41 11.94 41 15 C35.39 14.67 29.78 14.34 24 14 C24 15.98 24 17.96 24 20 C30.6 20 37.2 20 44 20 C44 15.38 44 10.76 44 6 C53.57 6 63.14 6 73 6 C73.56 9.86 74.11 13.71 74.69 17.69 C74.96 19.5 74.96 19.5 75.24 21.35 C75.37 22.31 75.5 23.27 75.64 24.26 C75.78 25.24 75.92 26.22 76.07 27.23 C75.98 30.66 74.94 32.21 73 35 C72.66 35.66 72.31 36.32 71.96 37 C70.8 39.01 69.75 40.47 68 42 C64.69 42.85 61.58 42.67 58.19 42.44 C57.3 42.41 56.42 42.37 55.51 42.34 C53.34 42.26 51.17 42.13 49 42 C48.67 41.01 48.34 40.02 48 39 C46.68 38.34 45.36 37.68 44 37 C44 34.03 44 31.06 44 28 C37.73 28 31.46 28 25 28 C25.68 31.93 25.68 31.93 26.38 35.94 C26.51 36.76 26.65 37.59 26.79 38.44 C27.13 40.31 27.56 42.15 28 44 C28.99 44.5 28.99 44.5 30 45 C29.94 44.13 29.88 43.27 29.81 42.38 C30.02 38.56 31.12 36.29 33 33 C36.3 33.66 39.6 34.32 43 35 C43 40 43 40 40 44 C50.23 44.33 60.46 44.66 71 45 C71 47.97 71 50.94 71 54 C69.68 54 68.36 54 67 54 C66.34 64.56 65.68 75.12 65 86 C61.7 86 58.4 86 55 86 C55 85.01 55 84.02 55 83 C40.81 83 26.62 83 12 83 C12 83.66 12 84.32 12 85 C9.03 85 6.06 85 3 85 C3 74.44 3 63.88 3 53 C2.34 53 1.68 53 1 53 C1 52.01 1 51.02 1 50 C-0.36 49.91 -0.36 49.91 -1.75 49.81 C-5.78 48.81 -6.85 47.48 -9 44 C-9 43.01 -9 42.02 -9 41 C-7.55 40.31 -7.55 40.31 -6.08 39.61 C-4.8 38.99 -3.53 38.37 -2.25 37.75 C-1.62 37.45 -0.98 37.15 -0.33 36.84 C3.64 34.9 5.77 33.23 9 30 C3.39 29.67 -2.22 29.34 -8 29 C-8 26.36 -8 23.72 -8 21 C-0.74 21 6.52 21 14 21 C14.33 18.69 14.66 16.38 15 14 C13.23 14.06 11.46 14.15 9.69 14.25 C8.7 14.3 7.72 14.34 6.7 14.39 C3.86 14.76 3.86 14.76 2.14 17.05 C1.58 18.01 1.58 18.01 1 19 C-4.75 18.12 -4.75 18.12 -7 17 C-5.5 13.21 -3.95 9.45 -2.38 5.69 C-1.93 4.62 -1.48 3.55 -1.02 2.45 C-0.69 1.64 -0.35 0.83 0 0 Z " fill="#09255D" transform="translate(547,786)"/>
<path d="M0 0 C10.56 0 21.12 0 32 0 C32 2.97 32 5.94 32 9 C25.57 9.5 25.57 9.5 19 10 C18.72 11.05 18.45 12.1 18.16 13.18 C17.79 14.55 17.43 15.93 17.06 17.31 C16.88 18 16.7 18.69 16.51 19.4 C15.74 22.3 14.95 25.16 14 28 C19.94 28 25.88 28 32 28 C32.33 40.54 32.66 53.08 33 66 C38.57 56.45 38.57 56.45 40.62 46.19 C40.7 45.21 40.77 44.24 40.85 43.23 C40.9 42.49 40.95 41.76 41 41 C38.36 41 35.72 41 33 41 C33 38.03 33 35.06 33 32 C35.97 32 38.94 32 42 32 C41.5 31.01 41.5 31.01 41 30 C40.92 28.41 40.89 26.81 40.9 25.21 C40.91 24.27 40.91 23.33 40.91 22.36 C40.92 20.88 40.92 20.88 40.94 19.38 C40.94 18.38 40.95 17.39 40.95 16.37 C40.96 13.91 40.98 11.46 41 9 C39.02 9 37.04 9 35 9 C35 6.03 35 3.06 35 0 C50.18 0 65.36 0 81 0 C81 2.97 81 5.94 81 9 C78.36 9 75.72 9 73 9 C73.01 9.65 73.02 10.31 73.04 10.98 C73.11 18.05 72.66 24.96 72 32 C75.63 32 79.26 32 83 32 C83 34.97 83 37.94 83 41 C79.37 41 75.74 41 72 41 C72 53.87 72 66.74 72 80 C68.7 80 65.4 80 62 80 C62.33 67.13 62.66 54.26 63 41 C59.04 41 55.08 41 51 41 C51.09 42.58 51.09 42.58 51.19 44.19 C51.11 58.05 45.49 71.05 36 81 C34.25 80.94 34.25 80.94 32 80 C30.4 77.76 29.25 75.46 28 73 C26.83 73.06 25.66 73.12 24.46 73.18 C22.91 73.22 21.36 73.27 19.81 73.31 C19.04 73.35 18.27 73.4 17.48 73.44 C13.5 73.52 11.46 73.28 8 71.16 C5.1 66.58 5.22 62.5 5.19 57.19 C5.16 56.21 5.14 55.23 5.11 54.22 C5.05 51.81 5.02 49.41 5 47 C3.35 49.31 1.7 51.62 0 54 C-2.37 53.05 -3.77 52.31 -5.31 50.25 C-7.1 44.41 -3.77 39.14 -1.19 34.06 C2.68 26.22 5.11 18.54 7 10 C4.69 9.67 2.38 9.34 0 9 C0 6.03 0 3.06 0 0 Z " fill="#09255E" transform="translate(638,792)"/>
<path d="M0 0 C8.25 0 16.5 0 25 0 C25 33.66 25 67.32 25 102 C16.75 102 8.5 102 0 102 C-0.92 99.25 -1.11 97.71 -1.08 94.88 C-1.08 94.04 -1.07 93.21 -1.06 92.34 C-1.05 91.43 -1.04 90.51 -1.02 89.57 C-1.01 88.61 -1 87.64 -0.99 86.64 C-0.96 83.45 -0.92 80.25 -0.88 77.05 C-0.85 74.84 -0.83 72.62 -0.81 70.4 C-0.74 64.57 -0.68 58.74 -0.61 52.9 C-0.53 46.95 -0.47 41 -0.4 35.04 C-0.28 23.36 -0.14 11.68 0 0 Z " fill="#0C2C66" transform="translate(447,658)"/>
<path d="M0 0 C1.4 0.02 2.8 0.04 4.2 0.05 C7.59 0.1 10.98 0.17 14.38 0.25 C13.85 8.21 12.82 14.09 7.38 20.25 C0.22 25.16 -7.05 26.99 -15.62 26.25 C-20.31 25.35 -24.32 24.05 -27.69 20.56 C-30.25 16.17 -30.34 14.27 -29.62 9.25 C-27.23 4.47 -23.51 2.93 -18.74 1.08 C-12.6 -0.55 -6.3 -0.16 0 0 Z " fill="#F3F9FE" transform="translate(660.625,715.75)"/>
<path d="M0 0 C4.46 2.94 7.42 6.61 8.75 11.81 C8.65 18.35 7.41 21.25 2.75 25.81 C-1.01 28.94 -4.24 29.28 -8.97 29.1 C-13.88 28.48 -17.24 26.88 -20.62 23.31 C-23.37 19.09 -23.59 15.77 -23.25 10.81 C-21.36 5.55 -18.65 3.02 -14.25 -0.19 C-9.22 -1.86 -4.91 -1.79 0 0 Z " fill="#0A2963" transform="translate(466.25,613.1875)"/>
<path d="M0 0 C0.99 0.5 0.99 0.5 2 1 C3.54 1.1 5.08 1.13 6.62 1.14 C8.09 1.15 8.09 1.15 9.59 1.16 C10.67 1.16 11.75 1.16 12.87 1.16 C14.59 1.17 14.59 1.17 16.34 1.17 C19.53 1.19 22.72 1.19 25.9 1.2 C29.34 1.21 32.77 1.22 36.21 1.24 C42.16 1.26 48.11 1.28 54.07 1.29 C62.67 1.31 71.28 1.34 79.89 1.37 C93.85 1.42 107.82 1.46 121.78 1.5 C135.35 1.54 148.91 1.58 162.48 1.63 C163.73 1.63 163.73 1.63 165.01 1.64 C169.21 1.65 173.4 1.66 177.59 1.68 C212.4 1.79 247.2 1.9 282 2 C282.33 2.99 282.66 3.98 283 5 C281.97 5 281.97 5 280.93 4.99 C273.82 4.97 266.72 4.96 259.61 4.95 C256.96 4.94 254.3 4.93 251.65 4.92 C247.84 4.91 244.03 4.91 240.23 4.9 C239.03 4.9 237.84 4.89 236.61 4.89 C234.96 4.89 234.96 4.89 233.28 4.89 C232.3 4.88 231.33 4.88 230.33 4.88 C227.98 4.85 227.98 4.85 226 6 C223.36 5.94 220.76 5.81 218.12 5.62 C217.4 5.58 216.68 5.54 215.94 5.49 C212.53 5.27 209.27 5.01 206 4 C205.67 4.66 205.34 5.32 205 6 C203.74 5.84 202.47 5.67 201.17 5.5 C192.9 4.68 184.59 4.89 176.29 4.93 C174.4 4.94 172.51 4.94 170.62 4.95 C166.57 4.96 162.53 4.97 158.48 4.99 C152.08 5.01 145.68 5.02 139.28 5.03 C121.09 5.07 102.9 5.11 84.71 5.17 C74.65 5.21 64.59 5.23 54.53 5.24 C48.16 5.25 41.8 5.27 35.43 5.3 C31.49 5.32 27.54 5.32 23.59 5.32 C21.75 5.32 19.91 5.33 18.08 5.34 C15.58 5.36 13.08 5.36 10.58 5.35 C9.85 5.36 9.12 5.37 8.37 5.38 C5.42 5.36 3.47 5.33 1.03 3.6 C0 2 0 2 0 0 Z " fill="#1F4AF0" transform="translate(350,490)"/>
<path d="M0 0 C0.66 0 1.32 0 2 0 C1.98 0.62 1.96 1.24 1.94 1.88 C1.74 8.35 1.6 14.82 1.51 21.3 C1.46 23.71 1.4 26.12 1.32 28.53 C1.21 32.01 1.16 35.49 1.12 38.96 C1.07 40.03 1.03 41.1 0.98 42.2 C0.98 46.93 1.12 49.86 4.06 53.68 C6.5 56.13 6.5 56.13 9.06 58.26 C10.02 59.12 10.02 59.12 11 60 C11 60.66 11 61.32 11 62 C47.96 62 84.92 62 123 62 C123 62.33 123 62.66 123 63 C122.22 63.06 121.44 63.12 120.63 63.18 C119.62 63.27 118.61 63.35 117.56 63.44 C116.55 63.52 115.54 63.6 114.5 63.68 C112.06 63.73 112.06 63.73 111 65 C108.67 65.12 106.37 65.18 104.03 65.19 C102.94 65.2 102.94 65.2 101.83 65.21 C100.24 65.23 98.65 65.25 97.07 65.26 C94.56 65.28 92.05 65.31 89.54 65.34 C84.21 65.4 78.89 65.45 73.56 65.5 C67.4 65.56 61.23 65.62 55.06 65.69 C52.59 65.72 50.11 65.74 47.64 65.76 C46.12 65.78 44.61 65.79 43.1 65.81 C42.4 65.81 41.71 65.82 41 65.82 C37.38 65.83 37.38 65.83 34 67 C33.01 66.5 33.01 66.5 32 66 C27.85 65.75 27.85 65.75 24 67 C22.02 67.01 20.04 66.94 18.06 66.81 C17 66.76 15.94 66.7 14.85 66.64 C11.39 65.86 10.84 64.92 9 62 C8.01 61.34 7.02 60.68 6 60 C5.53 59.18 5.05 58.35 4.56 57.5 C2.89 54.82 1.98 53.93 -1 53 C-2.49 53.5 -2.49 53.5 -4 54 C-4.09 52.13 -4.09 52.13 -4.18 50.23 C-4.27 48.55 -4.35 46.87 -4.44 45.19 C-4.48 44.32 -4.52 43.45 -4.57 42.55 C-4.8 37.97 -5.14 33.43 -5.69 28.88 C-6.15 24.16 -6 19.38 -4 15 C-3.01 14.67 -2.02 14.34 -1 14 C-1.03 12.21 -1.03 12.21 -1.06 10.38 C-1.07 6.82 -0.7 3.49 0 0 Z " fill="#328EFB" transform="translate(356,217)"/>
<path d="M0 0 C33.99 0 67.98 0 103 0 C103 0.66 103 1.32 103 2 C69.67 2 36.34 2 2 2 C2 8.27 2 14.54 2 21 C24.11 21 46.22 21 69 21 C69 21.33 69 21.66 69 22 C46.23 22 23.46 22 0 22 C0 14.74 0 7.48 0 0 Z " fill="#081851" transform="translate(206,619)"/>
<path d="M0 0 C36.96 0 73.92 0 112 0 C112.5 1.49 112.5 1.49 113 3 C111.97 3 111.97 3 110.93 2.99 C103.82 2.97 96.72 2.96 89.61 2.95 C86.96 2.94 84.3 2.93 81.65 2.92 C77.84 2.91 74.03 2.91 70.23 2.9 C69.03 2.9 67.84 2.89 66.61 2.89 C64.96 2.89 64.96 2.89 63.28 2.89 C62.3 2.88 61.33 2.88 60.33 2.88 C57.98 2.85 57.98 2.85 56 4 C53.36 3.94 50.76 3.81 48.12 3.62 C47.4 3.58 46.68 3.54 45.94 3.49 C42.53 3.27 39.27 3.01 36 2 C35.67 2.66 35.34 3.32 35 4 C34.43 3.93 33.86 3.86 33.27 3.78 C26.12 2.97 19.07 2.88 11.88 2.94 C10.15 2.94 10.15 2.94 8.4 2.95 C5.6 2.96 2.8 2.98 0 3 C0 2.01 0 1.02 0 0 Z " fill="#5048FA" transform="translate(520,492)"/>
<path d="M0 0 C14.52 0 29.04 0 44 0 C43.67 2.31 43.34 4.62 43 7 C28.81 7 14.62 7 0 7 C0 4.69 0 2.38 0 0 Z " fill="#DBE5F2" transform="translate(559,854)"/>
<path d="M0 0 C2.88 2.44 2.99 2.83 3.32 6.9 C3.32 8.53 3.29 10.17 3.26 11.8 C3.25 12.68 3.24 13.55 3.24 14.46 C3.21 17.26 3.17 20.07 3.12 22.88 C3.08 26.54 3.04 30.2 3.01 33.87 C3 34.75 2.99 35.63 2.98 36.54 C2.94 42.59 3.21 48.51 3.83 54.53 C4.08 58.2 3.57 60.67 2 64 C0.79 65.31 -0.44 66.6 -1.69 67.88 C-4.33 70.68 -4.33 70.68 -5.3 74.3 C-5.06 76.63 -4.63 78.75 -4 81 C-3.69 82.15 -3.38 83.31 -3.06 84.5 C-2.26 87.14 -2.26 87.14 0 88 C-0.33 88.99 -0.66 89.98 -1 91 C-5.82 86.7 -8.54 82.78 -9.32 76.39 C-9.58 70.09 -8.73 65.17 -5 60 C-4.33 59.42 -3.65 58.84 -2.96 58.24 C-0.51 55.44 -0.49 54.08 -0.45 50.41 C-0.43 49.28 -0.41 48.16 -0.39 47.01 C-0.39 45.8 -0.39 44.6 -0.39 43.36 C-0.37 42.12 -0.36 40.88 -0.34 39.61 C-0.3 36.33 -0.28 33.05 -0.26 29.77 C-0.24 26.41 -0.2 23.06 -0.16 19.71 C-0.09 13.14 -0.03 6.57 0 0 Z " fill="#0EABF9" transform="translate(330,217)"/>
<path d="M0 0 C4.2 0.14 8.41 0.26 12.62 0.38 C13.55 0.41 14.49 0.43 15.46 0.46 C29.26 0.84 43.06 1.03 56.86 1.23 C59.04 1.27 61.22 1.3 63.39 1.33 C71.63 1.46 79.86 1.58 88.1 1.71 C88.1 2.04 88.1 2.37 88.1 2.71 C87.51 2.71 86.93 2.71 86.32 2.71 C72.1 2.72 57.88 2.76 43.66 2.84 C36.78 2.87 29.91 2.9 23.03 2.9 C16.4 2.9 9.76 2.93 3.13 2.98 C0.59 2.99 -1.94 3 -4.47 2.99 C-8.02 2.99 -11.56 3.01 -15.1 3.05 C-16.15 3.04 -17.21 3.03 -18.3 3.02 C-20.93 3.06 -23.33 3.13 -25.9 3.71 C-28.07 6 -28.07 6 -28.9 8.71 C-34.46 13.2 -40.81 15.08 -47.9 14.71 C-53.54 13.71 -58.31 12.44 -61.9 7.71 C-56.38 7.45 -56.38 7.45 -54.08 8.67 C-49.32 10.93 -43.99 10.58 -38.9 9.71 C-35.66 7.92 -32.98 5.94 -30.15 3.55 C-22.62 -2.65 -9.14 -0.31 0 0 Z " fill="#3090FB" transform="translate(390.9040222167969,300.2949523925781)"/>
<path d="M0 0 C0.66 0.33 1.32 0.66 2 1 C1.84 1.71 1.67 2.42 1.51 3.15 C0.99 6.04 0.88 8.68 0.88 11.61 C0.88 12.73 0.88 13.85 0.88 15 C0.88 16.22 0.88 17.43 0.89 18.68 C0.89 19.97 0.89 21.26 0.89 22.59 C0.89 26.11 0.89 29.64 0.9 33.16 C0.9 36.85 0.91 40.53 0.91 44.22 C0.91 51.2 0.92 58.17 0.93 65.15 C0.94 73.09 0.94 81.04 0.95 88.98 C0.96 105.32 0.98 121.66 1 138 C8.26 138 15.52 138 23 138 C22.99 135.95 22.98 133.9 22.97 131.79 C22.94 125.03 22.91 118.27 22.9 111.51 C22.89 107.4 22.87 103.3 22.85 99.2 C22.83 95.25 22.82 91.29 22.81 87.34 C22.81 85.83 22.8 84.32 22.79 82.8 C22.77 80.69 22.77 78.58 22.77 76.47 C22.77 75.27 22.76 74.06 22.76 72.82 C23 70 23 70 25 68 C24.67 91.76 24.34 115.52 24 140 C15.75 140 7.5 140 -1 140 C-1.02 122.48 -1.04 104.97 -1.05 87.45 C-1.06 79.32 -1.06 71.19 -1.08 63.06 C-1.09 55.97 -1.09 48.88 -1.09 41.79 C-1.1 38.04 -1.1 34.28 -1.11 30.53 C-1.11 26.34 -1.11 22.15 -1.11 17.96 C-1.12 16.72 -1.12 15.47 -1.12 14.19 C-1.12 13.05 -1.12 11.9 -1.12 10.73 C-1.12 9.74 -1.12 8.74 -1.12 7.72 C-1 5.05 -0.6 2.6 0 0 Z " fill="#070E3D" transform="translate(333,620)"/>
<path d="M0 0 C4.29 0 8.58 0 13 0 C13.03 3.27 13.05 6.54 13.06 9.81 C13.07 10.74 13.08 11.67 13.09 12.63 C13.09 13.52 13.09 14.41 13.1 15.33 C13.1 16.15 13.11 16.98 13.11 17.82 C13 20 13 20 12 23 C8.37 23 4.74 23 1 23 C0.67 15.41 0.34 7.82 0 0 Z " fill="#F0F7FC" transform="translate(688,801)"/>
<path d="M0 0 C1.46 0 2.93 0 4.39 0 C8.2 0.01 12 0.02 15.81 0.03 C19.71 0.04 23.61 0.04 27.52 0.05 C35.14 0.06 42.77 0.08 50.39 0.1 C50.39 0.43 50.39 0.76 50.39 1.1 C88.51 1.59 88.51 1.59 127.39 2.1 C127.39 2.43 127.39 2.76 127.39 3.1 C74.92 3.43 22.45 3.76 -31.61 4.1 C-30.61 2.1 -30.61 2.1 -27.61 1.1 C-18.45 -0.11 -9.22 -0.04 0 0 Z " fill="#1598F5" transform="translate(408.609375,195.90234375)"/>
<path d="M0 0 C15.18 0 30.36 0 46 0 C45.67 1.98 45.34 3.96 45 6 C30.15 6 15.3 6 0 6 C0 4.02 0 2.04 0 0 Z " fill="#F7FCFF" transform="translate(558,840)"/>
<path d="M0 0 C0.66 0 1.32 0 2 0 C1.98 0.62 1.96 1.24 1.94 1.88 C1.74 8.35 1.6 14.82 1.51 21.3 C1.46 23.71 1.4 26.12 1.32 28.53 C1.21 32.01 1.16 35.49 1.12 38.96 C1.07 40.03 1.03 41.1 0.98 42.2 C0.98 46.94 1.14 49.87 4.06 53.71 C6.29 55.93 8.6 57.97 11 60 C11 60.33 11 60.66 11 61 C9.35 61 7.7 61 6 61 C5.77 60.24 5.55 59.47 5.31 58.69 C3.71 55.41 2.31 54.45 -1 53 C-2.49 53.5 -2.49 53.5 -4 54 C-4.09 52.13 -4.09 52.13 -4.18 50.23 C-4.27 48.55 -4.35 46.87 -4.44 45.19 C-4.48 44.32 -4.52 43.45 -4.57 42.55 C-4.8 37.97 -5.14 33.43 -5.69 28.88 C-6.15 24.16 -6 19.38 -4 15 C-3.01 14.67 -2.02 14.34 -1 14 C-1.03 12.21 -1.03 12.21 -1.06 10.38 C-1.07 6.82 -0.7 3.49 0 0 Z " fill="#09C0FB" transform="translate(356,217)"/>
<path d="M0 0 C2.97 0 5.94 0 9 0 C9.33 9.24 9.66 18.48 10 28 C6.7 28 3.4 28 0 28 C0 18.76 0 9.52 0 0 Z " fill="#F5FBFE" transform="translate(652,829)"/>
<path d="M0 0 C6.27 0 12.54 0 19 0 C19.33 2.97 19.66 5.94 20 9 C21.31 11.69 21.31 11.69 24 13 C27.08 13.6 30.11 13.7 33.25 13.75 C34.09 13.78 34.93 13.81 35.8 13.84 C37.86 13.91 39.93 13.96 42 14 C42 14.33 42 14.66 42 15 C40.86 15.06 39.71 15.12 38.54 15.18 C37.04 15.27 35.55 15.35 34.06 15.44 C32.93 15.5 32.93 15.5 31.78 15.56 C28.08 15.44 28.08 15.44 25 17 C23.15 17.07 21.29 17.08 19.44 17.06 C18.43 17.05 17.41 17.04 16.37 17.04 C15.2 17.02 15.2 17.02 14 17 C14.47 16.28 14.95 15.56 15.44 14.81 C16.94 12.11 17.57 10.04 18 7 C16.72 6.86 15.44 6.71 14.12 6.56 C11.74 6.29 10.16 6.08 8 5 C7.01 8.96 6.02 12.92 5 17 C4.01 16.67 3.02 16.34 2 16 C1.27 14.18 1.27 14.18 0.81 11.88 C0.65 11.13 0.5 10.38 0.33 9.62 C-0.07 6.44 0 3.21 0 0 Z " fill="#D3DDEC" transform="translate(572,814)"/>
<path d="M0 0 C3.96 0 7.92 0 12 0 C12 6.27 12 12.54 12 19 C8.04 19 4.08 19 0 19 C0 12.73 0 6.46 0 0 Z " fill="#F0F7FC" transform="translate(599,800)"/>
<path d="M0 0 C11.28 7.84 20.09 16.2 23 30 C24.33 38.98 21.05 47.36 16.16 54.81 C9.79 62.61 1.1 68.51 -9.07 69.57 C-18.63 70.07 -27.17 68.22 -35.19 62.88 C-37 61 -37 61 -37 59 C-36.34 59 -35.68 59 -35 59 C-34.35 59.68 -34.35 59.68 -33.69 60.37 C-27.93 65.94 -17.68 67.06 -10 67 C-1.76 65.81 6.57 61.52 12.38 55.56 C16.62 49.19 16.62 49.19 19 42 C19.19 41.28 19.37 40.56 19.56 39.81 C20.72 32.35 20 26.99 16.88 20.07 C16 18 16 18 16 16 C15.01 15.67 14.02 15.34 13 15 C11.64 13.35 10.31 11.69 9 10 C8.34 9.67 7.68 9.34 7 9 C7 8.34 7 7.68 7 7 C6.24 6.71 5.47 6.42 4.69 6.12 C2 5 2 5 -1 3 C-0.67 2.01 -0.34 1.02 0 0 Z " fill="#5E4FF6" transform="translate(686,473)"/>
<path d="M0 0 C2.89 2.89 2.35 5.87 2.41 9.74 C2.43 10.53 2.45 11.32 2.47 12.13 C2.53 14.71 2.58 17.29 2.62 19.88 C2.66 21.64 2.7 23.41 2.74 25.18 C3.04 39.79 3.11 54.39 3 69 C10.26 69 17.52 69 25 69 C25 65.37 25 61.74 25 58 C25.33 58 25.66 58 26 58 C26 62.29 26 66.58 26 71 C17.75 71 9.5 71 1 71 C0.67 47.57 0.34 24.14 0 0 Z " fill="#010D44" transform="translate(788,689)"/>
<path d="M0 0 C18.81 0 37.62 0 57 0 C56.67 0.66 56.34 1.32 56 2 C53.04 2.19 50.08 2.38 47.12 2.56 C46.28 2.62 45.44 2.67 44.57 2.73 C43.77 2.78 42.96 2.83 42.13 2.88 C41.39 2.93 40.65 2.97 39.88 3.02 C38 3 38 3 36 2 C35.67 2.66 35.34 3.32 35 4 C34.43 3.93 33.86 3.86 33.27 3.78 C26.12 2.97 19.07 2.88 11.88 2.94 C10.15 2.94 10.15 2.94 8.4 2.95 C5.6 2.96 2.8 2.98 0 3 C0 2.01 0 1.02 0 0 Z " fill="#4146F7" transform="translate(520,492)"/>
<path d="M0 0 C28.38 0 56.76 0 86 0 C86.5 0.99 86.5 0.99 87 2 C86.41 1.99 85.81 1.99 85.2 1.98 C74.62 1.9 64.13 1.85 53.58 2.88 C51 3 51 3 48 2 C46.42 1.91 44.84 1.88 43.25 1.89 C42.29 1.89 41.33 1.89 40.34 1.89 C39.31 1.89 38.27 1.9 37.21 1.9 C36.15 1.9 35.08 1.91 33.99 1.91 C30.6 1.91 27.21 1.92 23.81 1.94 C21.51 1.94 19.21 1.95 16.92 1.95 C11.28 1.96 5.64 1.98 0 2 C0 1.34 0 0.68 0 0 Z " fill="#0088F1" transform="translate(384,171)"/>
<path d="M0 0 C0.99 0 1.98 0 3 0 C3 0.66 3 1.32 3 2 C6.3 2 9.6 2 13 2 C13.5 2.99 13.5 2.99 14 4 C-22.96 4 -59.92 4 -98 4 C-98 3.67 -98 3.34 -98 3 C-65.66 2.67 -33.32 2.34 0 2 C0 1.34 0 0.68 0 0 Z " fill="#5382FD" transform="translate(628,406)"/>
<path d="M0 0 C-0.87 0.37 -0.87 0.37 -1.75 0.75 C-5.08 2.6 -7.33 5.26 -9.88 8.06 C-15.15 12.88 -21.02 14.17 -28 14 C-33.63 13.02 -38.42 11.72 -42 7 C-36.47 6.75 -36.47 6.75 -34.18 7.97 C-29.41 10.23 -24.09 9.88 -19 9 C-15.75 7.22 -13.07 5.23 -10.24 2.85 C-6.86 0.06 -4.24 -0.11 0 0 Z " fill="#0DA1F9" transform="translate(371,301)"/>
<path d="M0 0 C0.33 0 0.66 0 1 0 C1.03 1.23 1.05 2.46 1.08 3.73 C1.17 8.32 1.27 12.91 1.37 17.5 C1.42 19.49 1.46 21.47 1.5 23.45 C1.56 26.31 1.62 29.17 1.68 32.03 C1.7 32.91 1.72 33.79 1.73 34.69 C1.75 35.53 1.77 36.37 1.79 37.24 C1.82 38.33 1.82 38.33 1.84 39.44 C2.06 42.98 2.56 46.49 3 50 C-5.25 50 -13.5 50 -22 50 C-21.67 49.01 -21.34 48.02 -21 47 C-14.07 47 -7.14 47 0 47 C0 31.49 0 15.98 0 0 Z " fill="#133572" transform="translate(562,710)"/>
<path d="M0 0 C0.33 0 0.66 0 1 0 C1 16.17 1 32.34 1 49 C-0.49 49.5 -0.49 49.5 -2 50 C-3.13 42.24 -2.92 34.76 -2.56 26.94 C-2.51 25.69 -2.46 24.44 -2.4 23.16 C-2.28 20.11 -2.14 17.05 -2 14 C-1.67 14 -1.34 14 -1 14 C-0.67 9.38 -0.34 4.76 0 0 Z " fill="#4D7BFB" transform="translate(686,424)"/>
<path d="M0 0 C0.33 0 0.66 0 1 0 C1.1 6.21 1.17 12.42 1.22 18.63 C1.24 20.75 1.27 22.86 1.3 24.97 C1.35 28.01 1.37 31.05 1.39 34.08 C1.41 35.03 1.43 35.98 1.45 36.95 C1.46 43.5 1.46 43.5 -0.88 46.07 C-3 47 -3 47 -5.38 47.75 C-8.67 49.32 -10.25 51.39 -12.52 54.19 C-18.58 61.62 -18.58 61.62 -23 63 C-25.75 62.62 -25.75 62.62 -28 62 C-28 61.34 -28 60.68 -28 60 C-26.87 59.88 -25.73 59.75 -24.56 59.62 C-19.29 58.35 -16.87 54.87 -13.66 50.7 C-11 48 -11 48 -8.52 47.09 C-5.17 45.77 -3.37 44.76 -1 42 C0.91 35.15 0.26 27.66 0.12 20.62 C0.12 18.63 0.13 16.63 0.13 14.64 C0.14 9.76 0.09 4.88 0 0 Z " fill="#1F4BF1" transform="translate(660,432)"/>
<path d="M0 0 C0.66 0.66 1.32 1.32 2 2 C-10.87 14.87 -23.74 27.74 -37 41 C-37.66 40.67 -38.32 40.34 -39 40 C-30.73 30.78 -22.1 21.98 -13.31 13.25 C-12.01 11.96 -10.71 10.66 -9.42 9.37 C-6.28 6.24 -3.14 3.12 0 0 Z " fill="#315AF3" transform="translate(641,231)"/>
<path d="M0 0 C13.53 0 27.06 0 41 0 C41 0.33 41 0.66 41 1 C39.19 1.07 39.19 1.07 37.35 1.15 C35.78 1.22 34.2 1.3 32.62 1.38 C31.83 1.41 31.04 1.44 30.22 1.47 C25.63 1.52 25.63 1.52 22 4 C20.18 4.3 20.18 4.3 18.01 4.38 C17.22 4.41 16.43 4.45 15.62 4.48 C14.39 4.52 14.39 4.52 13.12 4.56 C11.5 4.62 9.88 4.69 8.26 4.75 C7.54 4.78 6.82 4.8 6.07 4.83 C3.96 5 2.04 5.43 0 6 C0 4.02 0 2.04 0 0 Z " fill="#F4FAFE" transform="translate(559,855)"/>
<path d="M0 0 C1.44 0.28 1.44 0.28 2.91 0.56 C2.91 0.89 2.91 1.22 2.91 1.56 C1.85 1.79 0.8 2.03 -0.28 2.28 C-4.12 3.38 -6.28 5.14 -9.11 8.01 C-10.03 8.93 -10.95 9.85 -11.9 10.8 C-12.88 11.8 -13.86 12.81 -14.84 13.81 C-15.86 14.84 -16.88 15.87 -17.9 16.9 C-20.58 19.59 -23.24 22.3 -25.9 25.02 C-28.62 27.79 -31.35 30.54 -34.08 33.3 C-39.44 38.71 -44.77 44.13 -50.09 49.56 C-50.75 49.23 -51.41 48.9 -52.09 48.56 C-49.59 43.8 -49.59 43.8 -47.24 42.64 C-44.62 41.32 -43.03 39.68 -40.99 37.57 C-39.79 36.33 -39.79 36.33 -38.57 35.08 C-37.72 34.19 -36.86 33.31 -35.98 32.39 C-34.16 30.53 -32.33 28.67 -30.51 26.81 C-27.64 23.87 -24.77 20.92 -21.92 17.96 C-19.17 15.11 -16.39 12.28 -13.61 9.45 C-12.76 8.56 -11.91 7.67 -11.04 6.76 C-4.36 0.02 -4.36 0.02 0 0 Z " fill="#0850EE" transform="translate(506.094482421875,321.44384765625)"/>
<path d="M0 0 C0.66 0 1.32 0 2 0 C1.98 0.62 1.96 1.24 1.94 1.88 C1.74 8.35 1.6 14.82 1.51 21.3 C1.46 23.71 1.4 26.12 1.32 28.53 C1.21 32.01 1.16 35.49 1.12 38.96 C1.07 40.03 1.03 41.1 0.98 42.2 C0.98 46.94 1.14 49.87 4.06 53.71 C6.29 55.93 8.6 57.97 11 60 C11 60.33 11 60.66 11 61 C9.35 61 7.7 61 6 61 C5.77 60.24 5.55 59.47 5.31 58.69 C3.71 55.41 2.31 54.45 -1 53 C-2.49 53.5 -2.49 53.5 -4 54 C-3.5 51.03 -3.5 51.03 -3 48 C-2.01 48.33 -1.02 48.66 0 49 C-0.04 47.73 -0.07 46.46 -0.11 45.15 C-0.24 40.42 -0.36 35.69 -0.48 30.96 C-0.54 28.91 -0.59 26.87 -0.65 24.82 C-0.73 21.88 -0.81 18.94 -0.88 15.99 C-0.91 15.08 -0.93 14.17 -0.96 13.24 C-1.07 8.68 -0.96 4.48 0 0 Z " fill="#01ABEF" transform="translate(356,217)"/>
<path d="M0 0 C3.63 0 7.26 0 11 0 C9.79 2.29 9.79 2.29 8.56 4.62 C6.65 8.43 5.34 11.7 5 16 C4.01 15.67 3.02 15.34 2 15 C0.14 10.27 -0.26 5.04 0 0 Z " fill="#F0F7FC" transform="translate(572,815)"/>
<path d="M0 0 C3.67 2.68 5.78 5.06 8 9 C10.06 11.41 10.89 11.96 14 13 C14.43 13.47 14.87 13.95 15.31 14.44 C17.61 16.56 20.03 17.14 23 18 C23.75 20.19 23.75 20.19 24 23 C22.06 25.81 22.06 25.81 20 28 C19.89 27.43 19.78 26.86 19.66 26.28 C18.04 19.95 15.51 17.33 10.21 13.63 C8.17 12.13 6.75 10.73 5.19 8.75 C3.26 6.32 1.56 4.71 -1 3 C-0.67 2.01 -0.34 1.02 0 0 Z " fill="#0E9CF2" transform="translate(641,407)"/>
<path d="M0 0 C2.44 0.38 2.44 0.38 5 1 C5.33 1.66 5.66 2.32 6 3 C11.94 3.33 17.88 3.66 24 4 C24 4.33 24 4.66 24 5 C22.86 5.06 21.71 5.12 20.54 5.18 C19.04 5.27 17.55 5.35 16.06 5.44 C14.93 5.5 14.93 5.5 13.78 5.56 C10.08 5.44 10.08 5.44 7 7 C5.15 7.07 3.29 7.08 1.44 7.06 C0.43 7.05 -0.59 7.04 -1.63 7.04 C-2.41 7.02 -3.19 7.01 -4 7 C-2.68 4.69 -1.36 2.38 0 0 Z " fill="#DFE8F4" transform="translate(590,824)"/>
<path d="M0 0 C5.21 -0.42 7.24 -0.38 12 2 C8.04 2 4.08 2 0 2 C0.33 3.98 0.66 5.96 1 8 C6.61 8.33 12.22 8.66 18 9 C18 9.33 18 9.66 18 10 C13.65 10.84 9.56 11.11 5.12 11.06 C3.97 11.05 2.82 11.04 1.63 11.04 C0.76 11.02 -0.1 11.01 -1 11 C-2.39 8.23 -2.19 6.07 -2 3 C-1.34 2.01 -0.68 1.02 0 0 Z " fill="#05184E" transform="translate(571,798)"/>
<path d="M0 0 C0.99 0.33 1.98 0.66 3 1 C0.88 3.17 -1.24 5.34 -3.38 7.5 C-3.98 8.12 -4.58 8.74 -5.2 9.38 C-5.78 9.97 -6.36 10.55 -6.96 11.16 C-7.5 11.7 -8.03 12.25 -8.58 12.81 C-10 14 -10 14 -12 14 C-12.23 14.56 -12.45 15.11 -12.69 15.69 C-14.36 18.63 -16.55 20.68 -19 23 C-19.33 22.01 -19.66 21.02 -20 20 C-13.4 13.4 -6.8 6.8 0 0 Z " fill="#2B5CF3" transform="translate(544,328)"/>
<path d="M0 0 C1.91 3.58 2.59 5.89 2 10 C0.4 11.73 -1.28 13.38 -3 15 C-4.04 16.03 -5.08 17.07 -6.11 18.11 C-9.08 21.08 -12.04 24.04 -15 27 C-15.66 26.34 -16.32 25.68 -17 25 C-16.52 24.56 -16.04 24.12 -15.55 23.67 C-13.36 21.66 -11.21 19.61 -9.06 17.56 C-8.31 16.87 -7.55 16.19 -6.78 15.48 C-3 11.83 -0.59 9.31 0 3.96 C0 2.66 0 1.35 0 0 Z " fill="#375EF3" transform="translate(660,204)"/>
<path d="M0 0 C2 1 2 1 2.85 3.07 C3.57 5.38 4.28 7.69 5 10 C0.71 10 -3.58 10 -8 10 C-6.5 8.27 -5.01 6.55 -3.51 4.82 C-1.84 2.87 -1.84 2.87 0 0 Z " fill="#D7E2F0" transform="translate(562,821)"/>
<path d="M0 0 C9.9 0 19.8 0 30 0 C30 0.99 30 1.98 30 3 C19.77 2.67 9.54 2.34 -1 2 C-0.67 1.34 -0.34 0.68 0 0 Z " fill="#CCD7E8" transform="translate(645,716)"/>
<path d="M0 0 C2.71 -0.34 2.71 -0.34 6.1 -0.29 C7.31 -0.28 8.52 -0.27 9.77 -0.26 C11.04 -0.24 12.32 -0.21 13.62 -0.19 C14.9 -0.17 16.18 -0.16 17.5 -0.15 C20.67 -0.11 23.83 -0.06 27 0 C26.01 1.98 25.02 3.96 24 6 C23.67 5.34 23.34 4.68 23 4 C23.33 3.34 23.66 2.68 24 2 C16.08 2 8.16 2 0 2 C0 2.66 0 3.32 0 4 C-0.66 3.67 -1.32 3.34 -2 3 C-1.34 2.01 -0.68 1.02 0 0 Z " fill="#0D1F59" transform="translate(588,619)"/>
<path d="M0 0 C8.91 0 17.82 0 27 0 C27.33 1.32 27.66 2.64 28 4 C27.34 3.67 26.68 3.34 26 3 C24.11 2.92 22.22 2.89 20.34 2.9 C18.65 2.91 18.65 2.91 16.94 2.91 C15.17 2.92 15.17 2.92 13.38 2.94 C12.19 2.94 11.01 2.95 9.79 2.95 C6.86 2.96 3.93 2.98 1 3 C0.67 2.01 0.34 1.02 0 0 Z " fill="#0C1E59" transform="translate(490,619)"/>
<path d="M0 0 C0.65 0.15 1.31 0.31 1.98 0.46 C5.75 1.13 9.49 1.35 13.31 1.56 C14.05 1.61 14.79 1.65 15.56 1.69 C17.37 1.8 19.19 1.9 21 2 C20 4 20 4 17.82 5.13 C14.62 6.12 12.21 6.17 8.88 5.94 C7.84 5.88 6.81 5.83 5.74 5.78 C3 5 3 5 1.13 2.44 C0.76 1.64 0.39 0.83 0 0 Z " fill="#1B9EFB" transform="translate(365,278)"/>
<path d="M0 0 C1.76 3.09 2 4.23 2 8 C-6.25 8 -14.5 8 -23 8 C-22.67 7.34 -22.34 6.68 -22 6 C-14.74 6 -7.48 6 0 6 C0 4.02 0 2.04 0 0 Z " fill="#303B6A" transform="translate(563,752)"/>
<path d="M0 0 C3.63 0 7.26 0 11 0 C10.67 1.65 10.34 3.3 10 5 C6.7 5.33 3.4 5.66 0 6 C0 4.02 0 2.04 0 0 Z " fill="#E8F0F9" transform="translate(571,800)"/>
<path d="M0 0 C0.66 0 1.32 0 2 0 C2.43 0.45 2.87 0.9 3.32 1.37 C9.3 7.16 20.12 7.95 28 9 C28 9.33 28 9.66 28 10 C18.15 10.62 10.13 9.42 1.81 3.88 C0 2 0 2 0 0 Z " fill="#4E43F4" transform="translate(649,532)"/>
<path d="M0 0 C1.32 0 2.64 0 4 0 C4 0.99 4 1.98 4 3 C3.34 3 2.68 3 2 3 C2 3.66 2 4.32 2 5 C-11.86 5 -25.72 5 -40 5 C-40 4.67 -40 4.34 -40 4 C-26.47 4 -12.94 4 1 4 C0.5 2.02 0.5 2.02 0 0 Z " fill="#EBF2FF" transform="translate(600,840)"/>
<path d="M0 0 C7.92 0 15.84 0 24 0 C23.67 0.66 23.34 1.32 23 2 C21.19 2.09 21.19 2.09 19.35 2.18 C17.78 2.27 16.2 2.35 14.62 2.44 C13.83 2.48 13.04 2.52 12.22 2.56 C7.97 2.69 7.97 2.69 4 4 C1.38 3.06 1.38 3.06 -1 2 C-0.67 1.34 -0.34 0.68 0 0 Z " fill="#2593FA" transform="translate(386,280)"/>
<path d="M0 0 C8.58 0 17.16 0 26 0 C26.33 0.66 26.66 1.32 27 2 C18.06 3.31 8.23 4.12 0 0 Z " fill="#2A44F1" transform="translate(494,492)"/>
<path d="M0 0 C0.33 0 0.66 0 1 0 C1 6.6 1 13.2 1 20 C0.01 20 -0.98 20 -2 20 C-2.05 19.15 -2.1 18.29 -2.15 17.41 C-2.26 15.75 -2.26 15.75 -2.38 14.06 C-2.44 12.96 -2.51 11.86 -2.59 10.72 C-2.72 9.82 -2.86 8.93 -3 8 C-3.66 7.67 -4.32 7.34 -5 7 C-4.19 5.83 -3.38 4.66 -2.56 3.5 C-2.11 2.85 -1.66 2.2 -1.19 1.53 C-0.8 1.03 -0.41 0.52 0 0 Z " fill="#C1CEE5" transform="translate(643,838)"/>
<path d="M0 0 C5.38 -0.05 10.75 -0.09 16.13 -0.11 C17.95 -0.12 19.78 -0.13 21.61 -0.15 C24.24 -0.18 26.87 -0.19 29.49 -0.2 C30.72 -0.21 30.72 -0.21 31.98 -0.23 C33.99 -0.23 36 -0.12 38 0 C38.66 0.66 39.32 1.32 40 2 C38.68 2.99 37.36 3.98 36 5 C35.5 4.01 35.5 4.01 35 3 C35.33 2.34 35.66 1.68 36 1 C24.12 1 12.24 1 0 1 C0 0.67 0 0.34 0 0 Z " fill="#F0F9FF" transform="translate(441,304)"/>
<path d="M0 0 C0.99 0.33 1.98 0.66 3 1 C3 1.66 3 2.32 3 3 C3.58 3.26 4.17 3.51 4.77 3.78 C7.2 5.11 8.82 6.58 10.75 8.56 C11.67 9.49 11.67 9.49 12.61 10.44 C14 12 14 12 14 13 C12.35 13 10.7 13 9 13 C8.66 11.86 8.66 11.86 8.31 10.69 C6.71 7.41 5.31 6.45 2 5 C1.01 5.33 0.02 5.66 -1 6 C-0.67 4.02 -0.34 2.04 0 0 Z " fill="#0EB4FC" transform="translate(353,265)"/>
<path d="M0 0 C15.63 10.86 15.63 10.86 17.75 17.27 C17.84 17.84 17.92 18.41 18 19 C17.34 18.67 16.68 18.34 16 18 C16 17.34 16 16.68 16 16 C15.01 15.67 14.02 15.34 13 15 C11.64 13.35 10.31 11.69 9 10 C8.34 9.67 7.68 9.34 7 9 C7 8.34 7 7.68 7 7 C6.24 6.71 5.47 6.42 4.69 6.12 C2 5 2 5 -1 3 C-0.67 2.01 -0.34 1.02 0 0 Z " fill="#4E4DF5" transform="translate(686,473)"/>
<path d="M0 0 C0.66 0.33 1.32 0.66 2 1 C1.24 1.6 0.48 2.21 -0.3 2.83 C-1.29 3.63 -2.29 4.43 -3.31 5.25 C-4.3 6.04 -5.28 6.83 -6.3 7.64 C-8.6 9.65 -10.31 11.48 -12 14 C-12.66 13.67 -13.32 13.34 -14 13 C-10.29 7.34 -6.41 2.64 0 0 Z " fill="#0AB4EB" transform="translate(660,370)"/>
<path d="M0 0 C0.66 0 1.32 0 2 0 C2 2.64 2 5.28 2 8 C-1.96 8 -5.92 8 -10 8 C-10.33 7.34 -10.66 6.68 -11 6 C-7.37 6 -3.74 6 0 6 C0 4.02 0 2.04 0 0 Z " fill="#011350" transform="translate(668,793)"/>
<path d="M0 0 C-1 3 -1 3 -3.07 4.21 C-3.94 4.6 -4.8 4.98 -5.69 5.38 C-10.1 7.46 -13.42 9.7 -17 13 C-15.54 9.44 -13.68 7.68 -10.62 5.38 C-9.85 4.78 -9.08 4.19 -8.29 3.59 C-3.11 0 -3.11 0 0 0 Z " fill="#2846F0" transform="translate(661,474)"/>
<path d="M0 0 C0.66 0 1.32 0 2 0 C2 5.28 2 10.56 2 16 C-0.83 13.17 -0.68 10.95 -1 7 C-0.74 4.66 -0.43 2.32 0 0 Z " fill="#2099F6" transform="translate(684,424)"/>
<path d="M0 0 C1.32 0.33 2.64 0.66 4 1 C0.37 4.63 -3.26 8.26 -7 12 C-7.66 11.67 -8.32 11.34 -9 11 C-8.53 10.38 -8.05 9.76 -7.56 9.12 C-5.98 7.09 -5.98 7.09 -5 5 C-4.01 4.67 -3.02 4.34 -2 4 C-0.79 2 -0.79 2 0 0 Z " fill="#1045EE" transform="translate(537,371)"/>
<path d="M0 0 C0.33 0.99 0.66 1.98 1 3 C-0.6 3.22 -2.21 3.43 -3.81 3.62 C-4.71 3.74 -5.6 3.86 -6.52 3.98 C-9 4 -9 4 -12 2 C-7.88 0.71 -4.33 -0.26 0 0 Z " fill="#1CABFA" transform="translate(352,311)"/>
<path d="M0 0 C0.33 0 0.66 0 1 0 C2.6 10.93 2.6 10.93 0 16 C-0.99 16.33 -1.98 16.66 -3 17 C-2.87 16.28 -2.73 15.55 -2.6 14.8 C-1.7 9.88 -0.8 4.95 0 0 Z " fill="#3370F9" transform="translate(540,289)"/>
<path d="M0 0 C1.32 0.33 2.64 0.66 4 1 C0.7 4.3 -2.6 7.6 -6 11 C-6.33 9.68 -6.66 8.36 -7 7 C-5.68 6.67 -4.36 6.34 -3 6 C-2.67 4.68 -2.34 3.36 -2 2 C-1.34 2 -0.68 2 0 2 C0 1.34 0 0.68 0 0 Z " fill="#2149F0" transform="translate(650,258)"/>
<path d="M0 0 C0.66 0.66 1.32 1.32 2 2 C1.69 4.12 1.69 4.12 1 7 C0.82 8.37 0.65 9.75 0.5 11.12 C0 15 0 15 -1 18 C-2.62 16.38 -2.17 14.61 -2.19 12.38 C-2.16 7.87 -1.48 4.24 0 0 Z " fill="#23D1F0" transform="translate(310,172)"/>
<path d="M0 0 C0.75 2.19 0.75 2.19 1 5 C-0.94 7.81 -0.94 7.81 -3 10 C-3.33 7.03 -3.66 4.06 -4 1 C-2 0 -2 0 0 0 Z " fill="#0888F4" transform="translate(664,425)"/>
<path d="M0 0 C-3.11 3.11 -6.89 3.88 -11.24 4.12 C-13.16 4.12 -15.08 4.07 -17 4 C-17 3.67 -17 3.34 -17 3 C-15.64 2.81 -15.64 2.81 -14.25 2.62 C-11.12 2.2 -11.12 2.2 -9.06 0.94 C-6.05 -0.43 -3.26 -0.13 0 0 Z " fill="#1859F1" transform="translate(527,318)"/>
<path d="M0 0 C0.99 0 1.98 0 3 0 C3 0.66 3 1.32 3 2 C6.3 2 9.6 2 13 2 C13 2.33 13 2.66 13 3 C6.4 3 -0.2 3 -7 3 C-7 2.67 -7 2.34 -7 2 C-4.69 2 -2.38 2 0 2 C0 1.34 0 0.68 0 0 Z " fill="#3F88FC" transform="translate(628,406)"/>
<path d="M0 0 C0.99 0 1.98 0 3 0 C3.29 0.97 3.58 1.94 3.88 2.94 C4.64 6.11 4.64 6.11 7 7 C6.67 7.99 6.34 8.98 6 10 C2.46 6.83 0.41 4.83 0 0 Z " fill="#0B9EF7" transform="translate(323,298)"/>
<path d="M0 0 C0 3 0 3 -1.64 4.86 C-2.36 5.48 -3.08 6.11 -3.81 6.75 C-4.52 7.38 -5.23 8.02 -5.96 8.67 C-6.63 9.11 -7.31 9.55 -8 10 C-8.99 9.67 -9.98 9.34 -11 9 C-8.23 6.03 -5.5 4.03 -2 2 C-1.34 1.34 -0.68 0.68 0 0 Z " fill="#1754F0" transform="translate(523,414)"/>
<path d="M0 0 C1.32 0 2.64 0 4 0 C4 0.99 4 1.98 4 3 C3.34 3 2.68 3 2 3 C2 3.66 2 4.32 2 5 C-2.29 5 -6.58 5 -11 5 C-11 4.67 -11 4.34 -11 4 C-7.04 4 -3.08 4 1 4 C0.67 2.68 0.34 1.36 0 0 Z " fill="#E2EBF8" transform="translate(600,840)"/>
<path d="M0 0 C0.99 0 1.98 0 3 0 C3 3.3 3 6.6 3 10 C2.01 10 1.02 10 0 10 C0 6.7 0 3.4 0 0 Z " fill="#17346E" transform="translate(675,688)"/>
<path d="M0 0 C3.6 2.63 6.08 4.94 8 9 C7.67 9.66 7.34 10.32 7 11 C6.42 10.24 5.85 9.47 5.25 8.69 C3.28 6.34 1.52 4.71 -1 3 C-0.67 2.01 -0.34 1.02 0 0 Z " fill="#1593F6" transform="translate(641,407)"/>
<path d="M0 0 C0 3.01 -0.52 4.87 -1.5 7.69 C-1.92 8.9 -1.92 8.9 -2.34 10.14 C-2.56 10.75 -2.78 11.37 -3 12 C-3.66 12 -4.32 12 -5 12 C-4.59 6.71 -3.65 3.88 0 0 Z " fill="#1459F1" transform="translate(475,379)"/>
<path d="M0 0 C0.99 0.33 1.98 0.66 3 1 C0.69 3.31 -1.62 5.62 -4 8 C-4.66 7.01 -5.32 6.02 -6 5 C-5.34 5 -4.68 5 -4 5 C-4 4.34 -4 3.68 -4 3 C-2.19 1.31 -2.19 1.31 0 0 Z " fill="#1D46EF" transform="translate(616,293)"/>
<path d="M0 0 C0.89 0.02 1.78 0.04 2.7 0.05 C3.72 0.09 3.72 0.09 4.75 0.12 C4.42 0.78 4.09 1.44 3.75 2.12 C0.78 1.63 0.78 1.63 -2.25 1.12 C-2.25 1.78 -2.25 2.44 -2.25 3.12 C-4.56 2.79 -6.87 2.47 -9.25 2.12 C-6.04 0.22 -3.71 -0.1 0 0 Z " fill="#25D4F2" transform="translate(342.25,149.875)"/>
<path d="M0 0 C1.32 0.33 2.64 0.66 4 1 C1.69 3.31 -0.62 5.62 -3 8 C-3.33 7.01 -3.66 6.02 -4 5 C-2.06 2.31 -2.06 2.31 0 0 Z " fill="#1744EE" transform="translate(562,346)"/>
<path d="M0 0 C1.79 -0.05 3.58 -0.09 5.38 -0.12 C6.37 -0.15 7.37 -0.17 8.4 -0.2 C11 0 11 0 13 2 C11.68 2.99 10.36 3.98 9 5 C8.67 4.34 8.34 3.68 8 3 C8.33 2.34 8.66 1.68 9 1 C6.03 1 3.06 1 0 1 C0 0.67 0 0.34 0 0 Z " fill="#DAE8FE" transform="translate(468,304)"/>
<path d="M0 0 C4.27 1.58 6.27 4.51 9 8 C7.35 8 5.7 8 4 8 C3.71 7.24 3.42 6.47 3.12 5.69 C2.04 2.85 2.04 2.85 0 0 Z " fill="#0AA3FA" transform="translate(358,270)"/>
<path d="M0 0 C0 0.99 0 1.98 0 3 C-3.23 5.15 -4.28 5.2 -8 5 C-3.38 0 -3.38 0 0 0 Z " fill="#2B7DF9" transform="translate(503,263)"/>
<path d="M0 0 C0.33 0.99 0.66 1.98 1 3 C-1.31 4.65 -3.62 6.3 -6 8 C-4.85 3.41 -3.71 2.66 0 0 Z " fill="#2058F2" transform="translate(518,355)"/>
<path d="M0 0 C1 3 1 3 0.31 5.62 C-0.34 6.8 -0.34 6.8 -1 8 C-2.32 8.33 -3.64 8.66 -5 9 C-3.35 6.03 -1.7 3.06 0 0 Z " fill="#F3F9FF" transform="translate(562,821)"/>
<path d="M0 0 C-1 3 -1 3 -4 5 C-4.99 5 -5.98 5 -7 5 C-6 2 -6 2 -4.06 0.81 C-2 0 -2 0 0 0 Z " fill="#2C51F4" transform="translate(661,474)"/>
<path d="M0 0 C0.66 0.66 1.32 1.32 2 2 C-0.72 4.72 -3.37 5.79 -7 7 C-7 6.34 -7 5.68 -7 5 C-5.47 3.71 -5.47 3.71 -3.5 2.38 C-2.85 1.93 -2.2 1.48 -1.53 1.02 C-1.03 0.69 -0.52 0.35 0 0 Z " fill="#1458F2" transform="translate(484,371)"/>
<path d="M0 0 C-0.99 0.5 -0.99 0.5 -2 1 C-3.13 3.02 -3.13 3.02 -4 5 C-4.66 4.34 -5.32 3.68 -6 3 C-6 2.01 -6 1.02 -6 0 C-3.51 -1.25 -2.59 -0.78 0 0 Z " fill="#041245" transform="translate(544,827)"/>
<path d="M0 0 C0.66 0.33 1.32 0.66 2 1 C0.95 3.62 0.35 4.79 -2.12 6.25 C-2.74 6.5 -3.36 6.75 -4 7 C-4 6.34 -4 5.68 -4 5 C-3.34 5 -2.68 5 -2 5 C-2 4.01 -2 3.02 -2 2 C-1.34 2 -0.68 2 0 2 C0 1.34 0 0.68 0 0 Z " fill="#10BEEA" transform="translate(693,413)"/>
</svg>
